<svg data-v-3048614c="" version="1.0" xmlns="http://www.w3.org/2000/svg" width="100%" height="100%" viewBox="0 0 180 60" preserveAspectRatio="xMidYMid meet" color-interpolation-filters="sRGB" class="el-tooltip" style="margin: auto;">
  <rect data-v-3048614c="" x="0" y="0" width="100%" height="100%" fill="#fff" fill-opacity="0"></rect>
  <rect data-v-3048614c="" x="0" y="0" width="100%" height="100%" fill="url(#watermark)" fill-opacity="1" class="watermarklayer"></rect>
  <g data-v-3048614c="" fill="#1a75bc" transform="translate(5,5)">
    <g transform="translate(0,0)">
      <rect fill="#1a75bc" fill-opacity="0" x="0" y="0" width="48" height="46.89471493966"></rect>
      <svg x="0" y="0" width="48" height="46.89471493966">
        <svg xmlns="http://www.w3.org/2000/svg" viewBox="0 0 216.27 211.29">
          <g>
            <g>
              <path d="M125.68 197.6A92 92 0 1 1 183.1 33.84a105.65 105.65 0 1 0 0 143.6 91.46 91.46 0 0 1-57.42 20.16z" fill="#02a388"></path>
              <path d="M164.74 121.19a66.88 66.88 0 0 1-81.52 49.64 78.26 78.26 0 0 0 120-49.64zM216.27 101.52c-28-21.83-33-21.83-61.06 0 21.83-28 21.83-33 0-61.06 28 21.83 33 21.83 61.06 0-21.85 28.03-21.85 33.04 0 61.06z" fill="#0077c0"></path>
              <ellipse cx="183.97" cy="121.19" rx="19.23" ry="18.49" fill="#0077c0"></ellipse>
            </g>
          </g>
        </svg>
      </svg>
      <!----></g>
    <g transform="translate(55.01171875,4.003469467163086)">
      <g>
        <g>
          <path transform="translate(-3.322265625,37.072265625)" d="M3.32-0.37L3.32-0.37L3.32-34.86L3.32-34.86Q3.32-37.05 5.51-37.05L5.51-37.05L12.66-37.07L12.66-37.07Q14.84-37.07 14.84-34.86L14.84-34.86L14.84-30.98L14.84-30.98Q14.84-28.79 17.03-28.79L17.03-28.79L32.06-28.79L32.06-28.79Q34.25-28.79 34.25-26.60L34.25-26.60L34.25-0.37L34.25-0.37Q34.25 1.82 32.06 1.82L32.06 1.82L5.51 1.82L5.51 1.82Q3.32 1.82 3.32-0.37ZM14.84-21.91L14.84-21.91L14.84-5.06L14.84-5.06Q14.84-2.87 17.03-2.87L17.03-2.87L20.54-2.87L20.54-2.87Q22.73-2.87 22.73-5.06L22.73-5.06L22.73-21.91L22.73-21.91Q22.73-24.13 20.54-24.13L20.54-24.13L17.03-24.13L17.03-24.13Q14.84-24.13 14.84-21.91ZM57.93-12.55L57.93-12.55L42.87-12.55L42.87-12.55Q40.68-12.55 40.68-14.77L40.68-14.77L40.68-26.55L40.68-26.55Q40.68-28.77 42.87-28.77L42.87-28.77L69.42-28.77L69.42-28.77Q71.61-28.77 71.61-26.84L71.61-26.84L71.61-26.37L71.61-26.37Q71.61-24.44 69.42-24.44L69.42-24.44L54.40-24.44L54.40-24.44Q52.21-24.44 52.21-22.25L52.21-22.25L52.21-19.06L52.21-19.06Q52.21-16.88 54.40-16.88L54.40-16.88L69.45-16.88L69.45-16.88Q71.64-16.88 71.64-14.69L71.64-14.69L71.64-0.42L71.64-0.42Q71.64 1.79 69.45 1.79L69.45 1.79L42.90 1.79L42.90 1.79Q40.71 1.79 40.71-0.13L40.71-0.13L40.71-0.61L40.71-0.61Q40.71-2.53 42.90-2.53L42.90-2.53L57.93-2.53L57.93-2.53Q60.12-2.53 60.12-4.72L60.12-4.72L60.12-10.36L60.12-10.36Q60.12-12.55 57.93-12.55ZM102.88-26.92L107.21-8.07L111.90-26.95L111.90-26.95Q112.17-27.98 112.67-28.40L112.67-28.40L112.67-28.40Q113.19-28.79 114.28-28.79L114.28-28.79L118.47-28.79L118.47-28.79Q120.26-28.79 120.26-27.42L120.26-27.42L120.26-27.42Q120.26-27.13 120.10-26.60L120.10-26.60L112.03-0.03L112.03-0.03Q111.69 1.03 111.19 1.40L111.19 1.40L111.19 1.40Q110.66 1.79 109.58 1.79L109.58 1.79L104.57 1.79L104.57 1.79Q103.49 1.79 102.96 1.37L102.96 1.37L102.96 1.37Q102.46 0.98 102.20-0.08L102.20-0.08L97.64-19.51L93.02-0.08L93.02-0.08Q92.76 0.98 92.26 1.37L92.26 1.37L92.26 1.37Q91.73 1.79 90.65 1.79L90.65 1.79L85.30 1.79L85.30 1.79Q84.22 1.79 83.69 1.40L83.69 1.40L83.69 1.40Q83.16 1.00 82.87-0.03L82.87-0.03L75.28-26.58L75.28-26.58Q75.15-27.08 75.15-27.42L75.15-27.42L75.15-27.42Q75.15-28.79 76.94-28.79L76.94-28.79L81.32-28.79L81.32-28.79Q82.40-28.79 82.92-28.40L82.92-28.40L82.92-28.40Q83.45-27.98 83.69-26.92L83.69-26.92L88.07-8.12L92.89-26.95L92.89-26.95Q93.16-28.00 93.68-28.40L93.68-28.40L93.68-28.40Q94.18-28.79 95.26-28.79L95.26-28.79L100.54-28.79L100.54-28.79Q101.62-28.79 102.12-28.37L102.12-28.37L102.12-28.37Q102.65-27.98 102.88-26.92L102.88-26.92Z"></path>
        </g>
        <!----></g>
      <!----></g>
  </g>
</svg>